#N canvas 1537 1081 892 597 12;
#X obj 112 41 adc~ 1 2;
#X obj 116 287 dac~ 1 2;
#X obj 954 -1;
#X obj 263 40 adc~ 3 4 5 6;
#X obj 423 95 dac~ 27 28 29 30;
#X obj 113 81 hip~ 20;
#X obj 394 41 r~ osc_1;
#X obj 464 40 r~ osc_2;
#X obj 532 41 r~ osc_3;
#X obj 603 40 r~ osc_4;
#X obj 263 85 *~ 1.2;
#X obj 289 113 *~ 1.2;
#X obj 318 140 *~ 1.2;
#X obj 344 173 *~ 1.2;
#X obj 262 170 s~ cv1;
#X obj 288 195 s~ cv2;
#X obj 319 218 s~ cv3;
#X obj 344 241 s~ cv4;
#X obj 134 196;
#X connect 0 0 5 0;
#X connect 3 0 10 0;
#X connect 3 1 11 0;
#X connect 3 2 12 0;
#X connect 3 3 13 0;
#X connect 6 0 4 0;
#X connect 7 0 4 1;
#X connect 8 0 4 2;
#X connect 9 0 4 3;
#X connect 10 0 14 0;
#X connect 11 0 15 0;
#X connect 12 0 16 0;
#X connect 13 0 17 0;
