#N canvas 114 668 892 1130 12;
#X obj 255 30 adc~ 1 2;
#X obj 954 -1;
#X obj 603 28 adc~ 3 4 5 6;
#X obj 600 433 dac~ 27 28 29 30;
#X obj 571 379 r~ osc_1;
#X obj 641 379 r~ osc_2;
#X obj 709 379 r~ osc_3;
#X obj 780 379 r~ osc_4;
#X obj 603 55 *~ 1.2;
#X obj 630 81 *~ 1.2;
#X obj 659 108 *~ 1.2;
#X obj 685 138 *~ 1.2;
#X obj 603 138 s~ cv1;
#X obj 629 163 s~ cv2;
#X obj 660 186 s~ cv3;
#X obj 685 209 s~ cv4;
#X obj 186 285 cos~;
#X obj 140 315 *~;
#X obj 74 342 -~;
#X obj 140 288 cos~;
#X obj 186 234 phasor~;
#X obj 187 261 -~ 0.25;
#X obj 74 288 hilbert~;
#X obj 74 315 *~;
#X obj 485 302 cos~;
#X obj 446 352 *~;
#X obj 365 371 -~;
#X obj 435 297 cos~;
#X obj 485 244 phasor~;
#X obj 486 276 -~ 0.25;
#X obj 358 301 hilbert~;
#X obj 359 343 *~;
#X obj 23 33 vsl 15 128 10 1000 1 0 empty empty empty 0 -9 0 10 -262144
-1 -1 3880 1;
#X floatatom 25 175 5 0 0 0 - - -, f 5;
#X floatatom 337 102 5 0 0 0 - - -, f 5;
#X obj 484 202 *~ -1;
#X obj 27 216 phasor~;
#X obj 114 493 phasor~, f 11;
#X obj 78 540 *~;
#X obj 187 313 vsl 15 128 0.1 10 1 0 empty empty empty 0 -9 0 10 -262144
-1 -1 11700 1;
#X floatatom 186 447 5 0 0 0 - - -, f 5;
#X obj 287 675 dac~ 1 2 3 4;
#X obj 355 466 +~;
#X obj 384 162 *~;
#X obj 365 413 *~ 0.001;
#X obj 537 870 phasor~, f 11;
#X obj 531 705 vsl 15 128 0.1 10 1 0 empty empty empty 0 -9 0 10 -262144
-1 -1 0 1;
#X floatatom 538 845 5 0 0 0 - - -, f 5;
#X connect 0 0 41 0;
#X connect 0 0 42 0;
#X connect 2 0 8 0;
#X connect 2 1 9 0;
#X connect 2 2 10 0;
#X connect 2 3 11 0;
#X connect 4 0 3 0;
#X connect 5 0 3 1;
#X connect 6 0 3 2;
#X connect 7 0 3 3;
#X connect 8 0 12 0;
#X connect 9 0 13 0;
#X connect 10 0 14 0;
#X connect 11 0 15 0;
#X connect 16 0 17 1;
#X connect 17 0 18 1;
#X connect 18 0 38 0;
#X connect 19 0 23 1;
#X connect 20 0 21 0;
#X connect 20 0 19 0;
#X connect 21 0 16 0;
#X connect 22 0 23 0;
#X connect 22 1 17 0;
#X connect 23 0 18 0;
#X connect 24 0 25 1;
#X connect 25 0 26 1;
#X connect 26 0 44 0;
#X connect 27 0 31 1;
#X connect 28 0 29 0;
#X connect 28 0 27 0;
#X connect 29 0 24 0;
#X connect 30 0 31 0;
#X connect 30 1 25 0;
#X connect 31 0 26 0;
#X connect 32 0 33 0;
#X connect 33 0 36 0;
#X connect 34 0 43 0;
#X connect 35 0 28 0;
#X connect 36 0 22 0;
#X connect 37 0 38 1;
#X connect 38 0 41 2;
#X connect 39 0 40 0;
#X connect 40 0 37 0;
#X connect 42 0 41 1;
#X connect 43 0 35 0;
#X connect 43 0 20 0;
#X connect 44 0 42 1;
#X connect 46 0 47 0;
#X connect 47 0 45 0;
