#N canvas 21 727 892 1130 12;
#X obj 255 30 adc~ 1 2;
#X obj 954 -1;
#X obj 603 28 adc~ 3 4 5 6;
#X obj 600 433 dac~ 27 28 29 30;
#X obj 571 379 r~ osc_1;
#X obj 641 379 r~ osc_2;
#X obj 709 379 r~ osc_3;
#X obj 780 379 r~ osc_4;
#X obj 603 55 *~ 1.2;
#X obj 630 81 *~ 1.2;
#X obj 659 108 *~ 1.2;
#X obj 685 138 *~ 1.2;
#X obj 603 138 s~ cv1;
#X obj 629 163 s~ cv2;
#X obj 660 186 s~ cv3;
#X obj 685 -6 s~ cv4;
#X obj 545 572 cos~;
#X obj 499 602 *~;
#X obj 433 629 -~;
#X obj 499 575 cos~;
#X obj 546 548 -~ 0.25;
#X obj 433 575 hilbert~;
#X obj 433 602 *~;
#X obj 844 589 cos~;
#X obj 805 639 *~;
#X obj 724 658 -~;
#X obj 794 584 cos~;
#X obj 845 563 -~ 0.25;
#X obj 717 588 hilbert~;
#X obj 718 630 *~;
#X obj 77 24 vsl 15 128 10 1000 1 0 empty empty empty 0 -9 0 10 -262144
-1 -1 1900 1;
#X floatatom 73 187 5 0 0 0 - - -, f 5;
#X floatatom 287 227 5 0 0 0 - - -, f 5;
#X obj 76 215 phasor~;
#X obj 162 506 dac~ 1 2 3 4;
#X obj 338 275 *~;
#X obj 537 870 phasor~, f 11;
#X obj 531 705 vsl 15 128 0.1 10 1 0 empty empty empty 0 -9 0 10 -262144
-1 -1 0 1;
#X floatatom 538 845 5 0 0 0 - - -, f 5;
#X obj 840 533 osc~;
#X obj 545 521 phasor~;
#X obj 843 489 phasor~;
#N canvas 435 113 601 801 moddemod~ 1;
#X obj 91 17 inlet~, f 8;
#X obj 337 18 inlet~;
#X obj 92 131 hilbert~;
#X obj 91 175 *~;
#X obj 91 200 -~;
#X obj 90 249 outlet~;
#X obj 176 130 cos~;
#X obj 146 175 *~;
#X obj 232 126 cos~;
#X obj 232 61 phasor~;
#X obj 232 95 -~ 0.25;
#X obj 337 142 hilbert~;
#X obj 336 186 *~;
#X obj 336 211 -~;
#X obj 421 141 cos~;
#X obj 391 186 *~;
#X obj 477 137 cos~;
#X obj 477 72 phasor~;
#X obj 477 106 -~ 0.25;
#X obj 476 34 *~ -1;
#X obj 337 258 outlet~;
#X obj 476 -19 inlet~;
#X connect 0 0 2 0;
#X connect 1 0 11 0;
#X connect 2 0 3 0;
#X connect 2 1 7 0;
#X connect 3 0 4 0;
#X connect 4 0 5 0;
#X connect 6 0 3 1;
#X connect 7 0 4 1;
#X connect 8 0 7 1;
#X connect 9 0 10 0;
#X connect 9 0 6 0;
#X connect 10 0 8 0;
#X connect 11 0 12 0;
#X connect 11 1 15 0;
#X connect 12 0 13 0;
#X connect 13 0 20 0;
#X connect 14 0 12 1;
#X connect 15 0 13 1;
#X connect 16 0 15 1;
#X connect 17 0 18 0;
#X connect 17 0 14 0;
#X connect 18 0 16 0;
#X connect 19 0 17 0;
#X connect 21 0 19 0;
#X connect 21 0 9 0;
#X restore 168 415 pd moddemod~;
#X obj 320 80 vsl 15 128 10 1000 1 0 empty empty empty 0 -9 0 10 -262144
-1 -1 4800 1;
#X connect 0 0 42 1;
#X connect 2 0 8 0;
#X connect 2 1 9 0;
#X connect 2 2 10 0;
#X connect 2 3 11 0;
#X connect 4 0 3 0;
#X connect 5 0 3 1;
#X connect 6 0 3 2;
#X connect 7 0 3 3;
#X connect 8 0 12 0;
#X connect 9 0 13 0;
#X connect 10 0 14 0;
#X connect 11 0 15 0;
#X connect 16 0 17 1;
#X connect 17 0 18 1;
#X connect 18 0 28 0;
#X connect 19 0 22 1;
#X connect 20 0 16 0;
#X connect 21 0 22 0;
#X connect 21 1 17 0;
#X connect 22 0 18 0;
#X connect 23 0 24 1;
#X connect 24 0 25 1;
#X connect 26 0 29 1;
#X connect 27 0 23 0;
#X connect 28 0 29 0;
#X connect 28 1 24 0;
#X connect 29 0 25 0;
#X connect 30 0 31 0;
#X connect 31 0 33 0;
#X connect 32 0 35 0;
#X connect 33 0 42 0;
#X connect 35 0 42 2;
#X connect 37 0 38 0;
#X connect 38 0 36 0;
#X connect 39 0 27 0;
#X connect 39 0 26 0;
#X connect 40 0 20 0;
#X connect 40 0 19 0;
#X connect 41 0 39 0;
#X connect 42 0 34 2;
#X connect 42 1 34 0;
#X connect 42 1 34 1;
#X connect 43 0 32 0;
