#N canvas 137 744 892 597 12;
#X obj 217 62 adc~ 1 2;
#X obj 193 456 dac~ 1 2;
#X obj 954 -1;
#X obj 467 35 adc~ 3 4 5 6;
#X obj 516 424 dac~ 27 28 29 30;
#X obj 487 370 r~ osc_1;
#X obj 557 370 r~ osc_2;
#X obj 625 370 r~ osc_3;
#X obj 696 370 r~ osc_4;
#X obj 467 62 *~ 1.2;
#X obj 494 88 *~ 1.2;
#X obj 523 115 *~ 1.2;
#X obj 549 145 *~ 1.2;
#X obj 467 145 s~ cv1;
#X obj 493 170 s~ cv2;
#X obj 524 193 s~ cv3;
#X obj 549 216 s~ cv4;
#X obj 186 261 cos~;
#X obj 140 315 *~;
#X obj 74 342 -~;
#X obj 140 288 cos~;
#X obj 186 234 phasor~;
#X obj 186 288 -~ 0.25;
#X obj 74 288 hilbert~;
#X obj 74 315 *~;
#X obj 186 175 *~ 1000;
#X obj 374 283 cos~;
#X obj 327 315 *~;
#X obj 261 342 -~;
#X obj 327 288 cos~;
#X obj 374 229 phasor~;
#X obj 374 256 -~ 0.25;
#X obj 261 288 hilbert~;
#X obj 261 315 *~;
#X obj 374 175 *~ 1000;
#X obj 374 202 *~ -1;
#X connect 0 0 23 0;
#X connect 0 1 32 0;
#X connect 3 0 9 0;
#X connect 3 1 10 0;
#X connect 3 2 11 0;
#X connect 3 3 12 0;
#X connect 5 0 4 0;
#X connect 6 0 4 1;
#X connect 7 0 4 2;
#X connect 8 0 4 3;
#X connect 9 0 13 0;
#X connect 9 0 25 0;
#X connect 9 0 34 0;
#X connect 10 0 14 0;
#X connect 11 0 15 0;
#X connect 12 0 16 0;
#X connect 17 0 18 1;
#X connect 18 0 19 1;
#X connect 19 0 1 0;
#X connect 20 0 24 1;
#X connect 21 0 22 0;
#X connect 21 0 20 0;
#X connect 22 0 17 0;
#X connect 23 0 24 0;
#X connect 23 1 18 0;
#X connect 24 0 19 0;
#X connect 25 0 21 0;
#X connect 26 0 27 1;
#X connect 27 0 28 1;
#X connect 28 0 1 1;
#X connect 29 0 33 1;
#X connect 30 0 31 0;
#X connect 30 0 29 0;
#X connect 31 0 26 0;
#X connect 32 0 33 0;
#X connect 32 1 27 0;
#X connect 33 0 28 0;
#X connect 34 0 35 0;
#X connect 35 0 30 0;
