#N canvas 1200 803 1299 1021 12;
#X obj 169 20 adc~ 1 2;
#X obj 954 -1;
#X obj 603 28 adc~ 3 4 5 6;
#X obj 646 291 dac~ 27 28 29 30;
#X obj 617 237 r~ osc_1;
#X obj 687 237 r~ osc_2;
#X obj 755 237 r~ osc_3;
#X obj 826 237 r~ osc_4;
#X obj 603 55 *~ 1.2;
#X obj 630 81 *~ 1.2;
#X obj 659 108 *~ 1.2;
#X obj 685 138 *~ 1.2;
#X obj 603 138 s~ cv1;
#X obj 629 163 s~ cv2;
#X obj 660 186 s~ cv3;
#X obj 709 189 s~ cv4;
#X obj 112 42 vsl 15 128 0.1 1000 1 0 empty empty empty 0 -9 0 10 -262144
-1 -1 11300 1;
#X floatatom 110 186 5 0 0 0 - - -, f 5;
#X floatatom 256 263 5 0 2000 0 - - -, f 5;
#X obj 233 454 dac~ 1 2 3 4;
#X obj 256 126 vsl 15 128 1 10000 1 0 empty empty empty 0 -9 0 10 -262144
-1 -1 10800 1;
#X obj 699 740 eurocomb~;
#X floatatom 717 686 5 0 0 0 - - -, f 5;
#X obj 714 546 vsl 15 128 0.01 1 1 0 empty empty empty 0 -9 0 10 -262144
-1 -1 0 1;
#X obj 717 711 *~ 1;
#X obj 616 421 vsl 15 128 0.01 1 1 0 empty empty empty 0 -9 0 10 -262144
-1 -1 0 1;
#X floatatom 621 564 5 0 0 0 - - -, f 5;
#X text 156 64 f_sig;
#X text 268 82 f_mod;
#X floatatom 759 686 5 0 0 0 - - -, f 5;
#X obj 756 546 vsl 15 128 0.01 1 1 0 empty empty empty 0 -9 0 10 -262144
-1 -1 0 1;
#X obj 759 712 *~ 1;
#X text 683 525 comb size;
#X text 750 524 fb_intern;
#X text 599 370 fb_ext;
#X obj 761 771 s~ fbMod;
#X obj 645 633 *~;
#X obj 645 658 +~;
#X obj 609 604 r~ fbMod;
#X obj 162 417 s~ c;
#X obj 201 348 r~ c;
#X floatatom 363 182 5 0 1 0 - - -, f 5;
#X obj 363 44 vsl 15 128 0.1 1000 1 0 empty empty empty 0 -9 0 10 -262144
-1 -1 0 1;
#X floatatom 361 388 5 0 0 0 - - -, f 5;
#X obj 362 342 snapshot~;
#X obj 433 312 metro 100;
#X obj 434 289 bng 15 250 50 0 empty empty empty 17 7 0 10 -262144
-1 -1;
#X msg 476 249 0;
#X obj 362 299 vline~;
#X obj 254 311 *~ 1;
#X obj 425 832 vu 15 120 empty empty -1 -8 0 10 -66577 -1 1 0;
#X obj 425 805 snapshot~;
#X obj 496 775 metro 100;
#X obj 497 752 bng 15 250 50 0 empty empty empty 17 7 0 10 -262144
-1 -1;
#X obj 402 485 *~ 1;
#X obj 488 729 loadbang;
#X obj 1046 432 vsl 15 128 0.1 1000 1 0 empty empty empty 0 -9 0 10
-262144 -1 -1 0 1;
#X floatatom 1047 569 5 0 0 0 - - -, f 5;
#X obj 1049 597 osc~;
#X obj 1052 670 +~;
#X obj 1052 645 *~ -0.5;
#X obj 129 705 writesf~ 1;
#X msg 45 615 bang;
#X obj 45 640 delay 10000;
#X msg 46 668 stop;
#X msg 158 643 start;
#X msg 90 590 open -bytes 4 halber_Pegel559Hzsweep_dc;
#X floatatom 1005 314 5 0 0 0 - - -, f 5;
#X obj 1006 268 snapshot~;
#X obj 1077 238 metro 100;
#X obj 1078 215 bng 15 250 50 0 empty empty empty 17 7 0 10 -262144
-1 -1;
#X msg 1120 175 0;
#X obj 1006 225 vline~;
#X msg 1007 176 300 10000;
#X text 1010 134 test ramp generator;
#X msg 78 554 open -bytes 3 truesinglemodulator_collerPegel_Alles_559Hzsweep_ac_24bit
;
#X msg 363 250 10000 1000;
#X obj 961 792 moddemod_ac~;
#X obj 161 385 moddemod_dc~;
#X msg 228 632 open -bytes 3 modSignal_fixed440_mod2000;
#X obj 157 263 osc~ 2000;
#X obj 159 315 *~ 0.03;
#X connect 2 0 8 0;
#X connect 2 1 9 0;
#X connect 2 2 10 0;
#X connect 2 3 11 0;
#X connect 4 0 3 0;
#X connect 5 0 3 1;
#X connect 6 0 3 2;
#X connect 7 0 3 3;
#X connect 8 0 12 0;
#X connect 9 0 13 0;
#X connect 10 0 14 0;
#X connect 11 0 15 0;
#X connect 16 0 17 0;
#X connect 17 0 80 0;
#X connect 18 0 49 0;
#X connect 20 0 18 0;
#X connect 21 1 35 0;
#X connect 22 0 24 0;
#X connect 23 0 22 0;
#X connect 24 0 21 1;
#X connect 25 0 26 0;
#X connect 29 0 31 0;
#X connect 30 0 29 0;
#X connect 31 0 21 2;
#X connect 36 0 37 0;
#X connect 38 0 36 0;
#X connect 40 0 78 1;
#X connect 42 0 41 0;
#X connect 44 0 43 0;
#X connect 45 0 44 0;
#X connect 46 0 45 0;
#X connect 47 0 48 0;
#X connect 48 0 44 0;
#X connect 49 0 78 2;
#X connect 51 0 50 0;
#X connect 52 0 51 0;
#X connect 53 0 52 0;
#X connect 54 0 51 0;
#X connect 55 0 52 0;
#X connect 56 0 57 0;
#X connect 57 0 58 0;
#X connect 58 0 59 1;
#X connect 58 0 60 0;
#X connect 60 0 59 0;
#X connect 62 0 63 0;
#X connect 62 0 65 0;
#X connect 63 0 64 0;
#X connect 64 0 61 0;
#X connect 65 0 61 0;
#X connect 66 0 61 0;
#X connect 68 0 67 0;
#X connect 69 0 68 0;
#X connect 70 0 69 0;
#X connect 71 0 72 0;
#X connect 72 0 68 0;
#X connect 73 0 72 0;
#X connect 75 0 61 0;
#X connect 76 0 48 0;
#X connect 76 0 62 0;
#X connect 78 0 39 0;
#X connect 78 0 61 0;
#X connect 78 1 54 0;
#X connect 78 1 19 0;
#X connect 78 1 19 1;
#X connect 79 0 61 0;
#X connect 80 0 81 0;
#X connect 81 0 78 0;
